<svg xmlns="http://www.w3.org/2000/svg" width="437" height="188" viewBox="0 0 437 188">
  <g id="AnugerahDeveloperLogoWithBackground" transform="translate(-169 -260)">
    <rect id="Rectangle_7" data-name="Rectangle 7" width="437" height="188" transform="translate(169 260)" fill="#9d342d"/>
    <g id="Group_1" data-name="Group 1" transform="translate(99 -106)">
      <g id="Group_9" data-name="Group 9" transform="translate(117 400)">
        <line id="Line_1" data-name="Line 1" x2="134.747" transform="translate(0 19.419)" fill="none" stroke="#2c44e1" stroke-linecap="round" stroke-width="4"/>
        <line id="Line_2" data-name="Line 2" x2="135.539" transform="translate(208.461 19.419)" fill="none" stroke="#2c44e1" stroke-linecap="round" stroke-width="4"/>
        <g id="Path_7" data-name="Path 7" transform="translate(148.226 0)">
          <path id="Path_1" data-name="Path 1" d="M1514.662,434.952h28.206l6.667-20.877-15.385,4.1L1528,402.28l-6.667,15.9-12.821-4.1Z" transform="translate(-1505.337 -399.11)" fill="none"/>
          <path id="Path_2" data-name="Path 2" d="M1542.04,434.123l6.666-20.877-15.385,4.1-6.151-15.9-6.674,15.9-12.817-4.1,6.151,20.877h28.209m0,3.171h-28.209a3.166,3.166,0,0,1-3.036-2.274l-6.159-20.877a3.173,3.173,0,0,1,4.011-3.916l10.051,3.218,5.548-13.219a3.168,3.168,0,0,1,2.925-1.944h.04a3.178,3.178,0,0,1,2.917,2.026l5.12,13.246,12.642-3.37a3.168,3.168,0,0,1,3.836,4.028l-6.666,20.877A3.171,3.171,0,0,1,1542.04,437.293Z" transform="translate(-1504.506 -398.28)" fill="#2c44e1"/>
        </g>
      </g>
      <text id="Anugerah_Developer" data-name="Anugerah Developer" transform="translate(140.631 475.426)" fill="#fff" stroke="rgba(0,0,0,0)" stroke-width="1" font-size="30" font-family="TimesNewRomanPSMT, Times New Roman" letter-spacing="0.09em"><tspan x="0" y="0">Anugerah Developer</tspan></text>
      <g id="Group_8" data-name="Group 8" transform="translate(191.164 496.37)">
        <path id="Icon_ionic-ios-star" data-name="Icon ionic-ios-star" d="M26.271,11.4h-8.2L15.581,3.965a.9.9,0,0,0-1.695,0L11.4,11.4H3.142a.894.894,0,0,0-.892.892.655.655,0,0,0,.017.151.857.857,0,0,0,.373.63l6.737,4.749L6.792,25.339a.894.894,0,0,0,.307,1,.862.862,0,0,0,.5.217,1.092,1.092,0,0,0,.555-.2l6.579-4.687,6.579,4.687a1.045,1.045,0,0,0,.555.2.8.8,0,0,0,.5-.217.883.883,0,0,0,.307-1L20.084,17.82l6.682-4.793.159-.14a.935.935,0,0,0,.29-.6.944.944,0,0,0-.944-.892Z" transform="translate(-2.25 -3.374)" fill="#d3cf53"/>
        <path id="Icon_ionic-ios-star-2" data-name="Icon ionic-ios-star" d="M26.271,11.4h-8.2L15.581,3.965a.9.9,0,0,0-1.695,0L11.4,11.4H3.142a.894.894,0,0,0-.892.892.655.655,0,0,0,.017.151.857.857,0,0,0,.373.63l6.737,4.749L6.792,25.339a.894.894,0,0,0,.307,1,.862.862,0,0,0,.5.217,1.092,1.092,0,0,0,.555-.2l6.579-4.687,6.579,4.687a1.045,1.045,0,0,0,.555.2.8.8,0,0,0,.5-.217.883.883,0,0,0,.307-1L20.084,17.82l6.682-4.793.159-.14a.935.935,0,0,0,.29-.6.944.944,0,0,0-.944-.892Z" transform="translate(40.133 -3.374)" fill="#d3cf53"/>
        <path id="Icon_ionic-ios-star-3" data-name="Icon ionic-ios-star" d="M26.271,11.4h-8.2L15.581,3.965a.9.9,0,0,0-1.695,0L11.4,11.4H3.142a.894.894,0,0,0-.892.892.655.655,0,0,0,.017.151.857.857,0,0,0,.373.63l6.737,4.749L6.792,25.339a.894.894,0,0,0,.307,1,.862.862,0,0,0,.5.217,1.092,1.092,0,0,0,.555-.2l6.579-4.687,6.579,4.687a1.045,1.045,0,0,0,.555.2.8.8,0,0,0,.5-.217.883.883,0,0,0,.307-1L20.084,17.82l6.682-4.793.159-.14a.935.935,0,0,0,.29-.6.944.944,0,0,0-.944-.892Z" transform="translate(83.399 -3.374)" fill="#d3cf53"/>
        <path id="Icon_ionic-ios-star-4" data-name="Icon ionic-ios-star" d="M26.271,11.4h-8.2L15.581,3.965a.9.9,0,0,0-1.695,0L11.4,11.4H3.142a.894.894,0,0,0-.892.892.655.655,0,0,0,.017.151.857.857,0,0,0,.373.63l6.737,4.749L6.792,25.339a.894.894,0,0,0,.307,1,.862.862,0,0,0,.5.217,1.092,1.092,0,0,0,.555-.2l6.579-4.687,6.579,4.687a1.045,1.045,0,0,0,.555.2.8.8,0,0,0,.5-.217.883.883,0,0,0,.307-1L20.084,17.82l6.682-4.793.159-.14a.935.935,0,0,0,.29-.6.944.944,0,0,0-.944-.892Z" transform="translate(125.781 -3.374)" fill="#d3cf53"/>
        <path id="Icon_ionic-ios-star-5" data-name="Icon ionic-ios-star" d="M26.271,11.4h-8.2L15.581,3.965a.9.9,0,0,0-1.695,0L11.4,11.4H3.142a.894.894,0,0,0-.892.892.655.655,0,0,0,.017.151.857.857,0,0,0,.373.63l6.737,4.749L6.792,25.339a.894.894,0,0,0,.307,1,.862.862,0,0,0,.5.217,1.092,1.092,0,0,0,.555-.2l6.579-4.687,6.579,4.687a1.045,1.045,0,0,0,.555.2.8.8,0,0,0,.5-.217.883.883,0,0,0,.307-1L20.084,17.82l6.682-4.793.159-.14a.935.935,0,0,0,.29-.6.944.944,0,0,0-.944-.892Z" transform="translate(168.165 -3.374)" fill="#d3cf53"/>
      </g>
    </g>
  </g>
</svg>
